%TF.GenerationSoftware,KiCad,Pcbnew,(5.0.0)*%
%TF.CreationDate,2019-04-05T20:44:03+13:00*%
%TF.ProjectId,VideoTimingBoard,566964656F54696D696E67426F617264,rev?*%
%TF.SameCoordinates,Original*%
%TF.FileFunction,Copper,L2,Bot,Signal*%
%TF.FilePolarity,Positive*%
%FSLAX46Y46*%
G04 Gerber Fmt 4.6, Leading zero omitted, Abs format (unit mm)*
G04 Created by KiCad (PCBNEW (5.0.0)) date 04/05/19 20:44:03*
%MOMM*%
%LPD*%
G01*
G04 APERTURE LIST*
%ADD10O,1.000000X1.000000*%
%ADD11R,1.000000X1.000000*%
%ADD12C,1.500000*%
%ADD13C,1.651000*%
%ADD14R,1.651000X1.651000*%
%ADD15C,3.810000*%
%ADD16C,0.800000*%
%ADD17C,0.254000*%
G04 APERTURE END LIST*
D10*
X161163000Y-118872000D03*
X159893000Y-118872000D03*
X158623000Y-118872000D03*
X157353000Y-118872000D03*
X156083000Y-118872000D03*
X154813000Y-118872000D03*
X153543000Y-118872000D03*
X152273000Y-118872000D03*
X151003000Y-118872000D03*
X149733000Y-118872000D03*
X148463000Y-118872000D03*
X147193000Y-118872000D03*
X145923000Y-118872000D03*
X144653000Y-118872000D03*
X143383000Y-118872000D03*
X142113000Y-118872000D03*
D11*
X140843000Y-118872000D03*
D12*
X160147000Y-93980000D03*
X155267000Y-93980000D03*
D13*
X135445500Y-110172500D03*
D14*
X135445500Y-112712500D03*
D15*
X123626000Y-101028500D03*
X119126000Y-101028500D03*
D16*
X164719000Y-110490000D03*
X156972000Y-105092500D03*
X153543000Y-97917000D03*
X155956000Y-106870500D03*
X167322500Y-101663500D03*
X168211500Y-93980000D03*
X161798000Y-102235000D03*
X154114500Y-101536500D03*
X145923000Y-108458000D03*
X149606000Y-103505000D03*
X138557000Y-104457500D03*
X130429000Y-102679500D03*
X144526000Y-98552000D03*
X132080000Y-106680000D03*
X122682000Y-109093000D03*
X168910000Y-118364000D03*
X165100000Y-96520000D03*
X151892000Y-94488000D03*
X146812000Y-96266000D03*
X134366000Y-94107000D03*
X123190000Y-92710000D03*
X151511000Y-100203000D03*
X142875000Y-96266000D03*
X138557000Y-96266000D03*
X135509000Y-99441000D03*
X131318000Y-99441000D03*
X132207000Y-102870000D03*
X141859000Y-100584000D03*
X152273000Y-110363000D03*
X152273000Y-114173000D03*
X155321000Y-112649000D03*
X162179000Y-114046000D03*
X154813000Y-110236000D03*
X158877000Y-105156000D03*
X165481000Y-105029000D03*
X170688000Y-101981000D03*
X167513000Y-103124000D03*
X140335000Y-114173000D03*
X137668000Y-111506000D03*
X136779000Y-108331000D03*
X135382000Y-104521000D03*
X139065000Y-109474000D03*
X142621000Y-113030000D03*
X163322000Y-116205000D03*
X163322000Y-118364000D03*
X138303000Y-98552000D03*
X157480000Y-110236000D03*
X160020000Y-110236000D03*
X160147000Y-112268000D03*
X164465000Y-112649000D03*
X174117000Y-106680000D03*
X169404000Y-106299000D03*
X174879000Y-112395000D03*
X169799000Y-113538000D03*
X171196000Y-115824000D03*
X170688000Y-109601000D03*
X176657000Y-116332000D03*
X160401000Y-107569000D03*
X131572000Y-113411000D03*
X130048000Y-118999000D03*
X149225000Y-110236000D03*
D17*
G36*
X174763358Y-85871842D02*
X175512277Y-86076723D01*
X176213072Y-86410986D01*
X176843605Y-86864069D01*
X177383934Y-87421645D01*
X177816989Y-88066099D01*
X178129073Y-88777044D01*
X178311640Y-89537493D01*
X178360000Y-90196031D01*
X178360001Y-118078371D01*
X178288158Y-118883359D01*
X178083277Y-119632277D01*
X177749013Y-120333075D01*
X177295931Y-120963605D01*
X176738354Y-121503935D01*
X176093901Y-121936989D01*
X175382956Y-122249073D01*
X174622506Y-122431640D01*
X173963968Y-122480000D01*
X118141618Y-122480000D01*
X117336641Y-122408158D01*
X116587723Y-122203277D01*
X115886925Y-121869013D01*
X115256395Y-121415931D01*
X114716065Y-120858354D01*
X114283011Y-120213901D01*
X113970927Y-119502956D01*
X113788360Y-118742506D01*
X113740000Y-118083968D01*
X113740000Y-117665431D01*
X115875000Y-117665431D01*
X115875000Y-118554569D01*
X116215259Y-119376026D01*
X116843974Y-120004741D01*
X117665431Y-120345000D01*
X118554569Y-120345000D01*
X119376026Y-120004741D01*
X120004741Y-119376026D01*
X120345000Y-118554569D01*
X120345000Y-118372000D01*
X139695560Y-118372000D01*
X139695560Y-119372000D01*
X139744843Y-119619765D01*
X139885191Y-119829809D01*
X140095235Y-119970157D01*
X140343000Y-120019440D01*
X141343000Y-120019440D01*
X141590765Y-119970157D01*
X141678817Y-119911322D01*
X141811126Y-119966119D01*
X141986000Y-119839954D01*
X141986000Y-119394322D01*
X141990440Y-119372000D01*
X141990440Y-118872000D01*
X142225765Y-118872000D01*
X142251027Y-118999000D01*
X142240000Y-118999000D01*
X142240000Y-119839954D01*
X142414874Y-119966119D01*
X142673209Y-119859127D01*
X142736090Y-119804801D01*
X142940145Y-119941146D01*
X143271217Y-120007000D01*
X143494783Y-120007000D01*
X143825855Y-119941146D01*
X144029910Y-119804801D01*
X144092791Y-119859127D01*
X144351126Y-119966119D01*
X144526000Y-119839954D01*
X144526000Y-118999000D01*
X144514973Y-118999000D01*
X144540235Y-118872000D01*
X144765765Y-118872000D01*
X144791027Y-118999000D01*
X144780000Y-118999000D01*
X144780000Y-119839954D01*
X144954874Y-119966119D01*
X145213209Y-119859127D01*
X145276090Y-119804801D01*
X145480145Y-119941146D01*
X145811217Y-120007000D01*
X146034783Y-120007000D01*
X146365855Y-119941146D01*
X146558000Y-119812759D01*
X146750145Y-119941146D01*
X147081217Y-120007000D01*
X147304783Y-120007000D01*
X147635855Y-119941146D01*
X147828000Y-119812759D01*
X148020145Y-119941146D01*
X148351217Y-120007000D01*
X148574783Y-120007000D01*
X148905855Y-119941146D01*
X149098000Y-119812759D01*
X149290145Y-119941146D01*
X149621217Y-120007000D01*
X149844783Y-120007000D01*
X150175855Y-119941146D01*
X150368000Y-119812759D01*
X150560145Y-119941146D01*
X150891217Y-120007000D01*
X151114783Y-120007000D01*
X151445855Y-119941146D01*
X151649910Y-119804801D01*
X151712791Y-119859127D01*
X151971126Y-119966119D01*
X152146000Y-119839954D01*
X152146000Y-118999000D01*
X152134973Y-118999000D01*
X152160235Y-118872000D01*
X152385765Y-118872000D01*
X152411027Y-118999000D01*
X152400000Y-118999000D01*
X152400000Y-119839954D01*
X152574874Y-119966119D01*
X152833209Y-119859127D01*
X152896090Y-119804801D01*
X153100145Y-119941146D01*
X153431217Y-120007000D01*
X153654783Y-120007000D01*
X153985855Y-119941146D01*
X154189910Y-119804801D01*
X154252791Y-119859127D01*
X154511126Y-119966119D01*
X154686000Y-119839954D01*
X154686000Y-118999000D01*
X154674973Y-118999000D01*
X154700235Y-118872000D01*
X154925765Y-118872000D01*
X154951027Y-118999000D01*
X154940000Y-118999000D01*
X154940000Y-119839954D01*
X155114874Y-119966119D01*
X155373209Y-119859127D01*
X155436090Y-119804801D01*
X155640145Y-119941146D01*
X155971217Y-120007000D01*
X156194783Y-120007000D01*
X156525855Y-119941146D01*
X156729910Y-119804801D01*
X156792791Y-119859127D01*
X157051126Y-119966119D01*
X157226000Y-119839954D01*
X157226000Y-118999000D01*
X157214973Y-118999000D01*
X157240235Y-118872000D01*
X157465765Y-118872000D01*
X157491027Y-118999000D01*
X157480000Y-118999000D01*
X157480000Y-119839954D01*
X157654874Y-119966119D01*
X157913209Y-119859127D01*
X157976090Y-119804801D01*
X158180145Y-119941146D01*
X158511217Y-120007000D01*
X158734783Y-120007000D01*
X159065855Y-119941146D01*
X159269910Y-119804801D01*
X159332791Y-119859127D01*
X159591126Y-119966119D01*
X159766000Y-119839954D01*
X159766000Y-118999000D01*
X159754973Y-118999000D01*
X159780235Y-118872000D01*
X160005765Y-118872000D01*
X160031027Y-118999000D01*
X160020000Y-118999000D01*
X160020000Y-119839954D01*
X160194874Y-119966119D01*
X160453209Y-119859127D01*
X160516090Y-119804801D01*
X160720145Y-119941146D01*
X161051217Y-120007000D01*
X161274783Y-120007000D01*
X161605855Y-119941146D01*
X161981289Y-119690289D01*
X162232146Y-119314855D01*
X162320235Y-118872000D01*
X162232146Y-118429145D01*
X161981289Y-118053711D01*
X161605855Y-117802854D01*
X161274783Y-117737000D01*
X161051217Y-117737000D01*
X160720145Y-117802854D01*
X160516090Y-117939199D01*
X160453209Y-117884873D01*
X160194874Y-117777881D01*
X160020000Y-117904046D01*
X160020000Y-118745000D01*
X160031027Y-118745000D01*
X160005765Y-118872000D01*
X159780235Y-118872000D01*
X159754973Y-118745000D01*
X159766000Y-118745000D01*
X159766000Y-117904046D01*
X159591126Y-117777881D01*
X159332791Y-117884873D01*
X159269910Y-117939199D01*
X159065855Y-117802854D01*
X158734783Y-117737000D01*
X158511217Y-117737000D01*
X158180145Y-117802854D01*
X157976090Y-117939199D01*
X157913209Y-117884873D01*
X157654874Y-117777881D01*
X157480000Y-117904046D01*
X157480000Y-118745000D01*
X157491027Y-118745000D01*
X157465765Y-118872000D01*
X157240235Y-118872000D01*
X157214973Y-118745000D01*
X157226000Y-118745000D01*
X157226000Y-117904046D01*
X157051126Y-117777881D01*
X156792791Y-117884873D01*
X156729910Y-117939199D01*
X156525855Y-117802854D01*
X156194783Y-117737000D01*
X155971217Y-117737000D01*
X155640145Y-117802854D01*
X155436090Y-117939199D01*
X155373209Y-117884873D01*
X155114874Y-117777881D01*
X154940000Y-117904046D01*
X154940000Y-118745000D01*
X154951027Y-118745000D01*
X154925765Y-118872000D01*
X154700235Y-118872000D01*
X154674973Y-118745000D01*
X154686000Y-118745000D01*
X154686000Y-117904046D01*
X154511126Y-117777881D01*
X154252791Y-117884873D01*
X154189910Y-117939199D01*
X153985855Y-117802854D01*
X153654783Y-117737000D01*
X153431217Y-117737000D01*
X153100145Y-117802854D01*
X152896090Y-117939199D01*
X152833209Y-117884873D01*
X152574874Y-117777881D01*
X152400000Y-117904046D01*
X152400000Y-118745000D01*
X152411027Y-118745000D01*
X152385765Y-118872000D01*
X152160235Y-118872000D01*
X152134973Y-118745000D01*
X152146000Y-118745000D01*
X152146000Y-117904046D01*
X151971126Y-117777881D01*
X151712791Y-117884873D01*
X151649910Y-117939199D01*
X151445855Y-117802854D01*
X151114783Y-117737000D01*
X150891217Y-117737000D01*
X150560145Y-117802854D01*
X150368000Y-117931241D01*
X150175855Y-117802854D01*
X149844783Y-117737000D01*
X149621217Y-117737000D01*
X149290145Y-117802854D01*
X149098000Y-117931241D01*
X148905855Y-117802854D01*
X148574783Y-117737000D01*
X148351217Y-117737000D01*
X148020145Y-117802854D01*
X147828000Y-117931241D01*
X147635855Y-117802854D01*
X147304783Y-117737000D01*
X147081217Y-117737000D01*
X146750145Y-117802854D01*
X146558000Y-117931241D01*
X146365855Y-117802854D01*
X146034783Y-117737000D01*
X145811217Y-117737000D01*
X145480145Y-117802854D01*
X145276090Y-117939199D01*
X145213209Y-117884873D01*
X144954874Y-117777881D01*
X144780000Y-117904046D01*
X144780000Y-118745000D01*
X144791027Y-118745000D01*
X144765765Y-118872000D01*
X144540235Y-118872000D01*
X144514973Y-118745000D01*
X144526000Y-118745000D01*
X144526000Y-117904046D01*
X144351126Y-117777881D01*
X144092791Y-117884873D01*
X144029910Y-117939199D01*
X143825855Y-117802854D01*
X143494783Y-117737000D01*
X143271217Y-117737000D01*
X142940145Y-117802854D01*
X142736090Y-117939199D01*
X142673209Y-117884873D01*
X142414874Y-117777881D01*
X142240000Y-117904046D01*
X142240000Y-118745000D01*
X142251027Y-118745000D01*
X142225765Y-118872000D01*
X141990440Y-118872000D01*
X141990440Y-118372000D01*
X141986000Y-118349678D01*
X141986000Y-117904046D01*
X141811126Y-117777881D01*
X141678817Y-117832678D01*
X141590765Y-117773843D01*
X141343000Y-117724560D01*
X140343000Y-117724560D01*
X140095235Y-117773843D01*
X139885191Y-117914191D01*
X139744843Y-118124235D01*
X139695560Y-118372000D01*
X120345000Y-118372000D01*
X120345000Y-117665431D01*
X171755000Y-117665431D01*
X171755000Y-118554569D01*
X172095259Y-119376026D01*
X172723974Y-120004741D01*
X173545431Y-120345000D01*
X174434569Y-120345000D01*
X175256026Y-120004741D01*
X175884741Y-119376026D01*
X176225000Y-118554569D01*
X176225000Y-117665431D01*
X175884741Y-116843974D01*
X175256026Y-116215259D01*
X174434569Y-115875000D01*
X173545431Y-115875000D01*
X172723974Y-116215259D01*
X172095259Y-116843974D01*
X171755000Y-117665431D01*
X120345000Y-117665431D01*
X120004741Y-116843974D01*
X119376026Y-116215259D01*
X118554569Y-115875000D01*
X117665431Y-115875000D01*
X116843974Y-116215259D01*
X116215259Y-116843974D01*
X115875000Y-117665431D01*
X113740000Y-117665431D01*
X113740000Y-111887000D01*
X133972560Y-111887000D01*
X133972560Y-113538000D01*
X134021843Y-113785765D01*
X134162191Y-113995809D01*
X134372235Y-114136157D01*
X134620000Y-114185440D01*
X136271000Y-114185440D01*
X136518765Y-114136157D01*
X136728809Y-113995809D01*
X136869157Y-113785765D01*
X136918440Y-113538000D01*
X136918440Y-111887000D01*
X136869157Y-111639235D01*
X136728809Y-111429191D01*
X136518765Y-111288843D01*
X136278933Y-111241138D01*
X136292110Y-111198715D01*
X135445500Y-110352105D01*
X134598890Y-111198715D01*
X134612067Y-111241138D01*
X134372235Y-111288843D01*
X134162191Y-111429191D01*
X134021843Y-111639235D01*
X133972560Y-111887000D01*
X113740000Y-111887000D01*
X113740000Y-109949631D01*
X133973160Y-109949631D01*
X133999947Y-110530035D01*
X134170524Y-110941844D01*
X134419285Y-111019110D01*
X135265895Y-110172500D01*
X135625105Y-110172500D01*
X136471715Y-111019110D01*
X136720476Y-110941844D01*
X136917840Y-110395369D01*
X136891053Y-109814965D01*
X136720476Y-109403156D01*
X136471715Y-109325890D01*
X135625105Y-110172500D01*
X135265895Y-110172500D01*
X134419285Y-109325890D01*
X134170524Y-109403156D01*
X133973160Y-109949631D01*
X113740000Y-109949631D01*
X113740000Y-109146285D01*
X134598890Y-109146285D01*
X135445500Y-109992895D01*
X136292110Y-109146285D01*
X136214844Y-108897524D01*
X135668369Y-108700160D01*
X135087965Y-108726947D01*
X134676156Y-108897524D01*
X134598890Y-109146285D01*
X113740000Y-109146285D01*
X113740000Y-104798713D01*
X113941000Y-104798713D01*
X113941000Y-105608287D01*
X114250810Y-106356235D01*
X114823265Y-106928690D01*
X115571213Y-107238500D01*
X116380787Y-107238500D01*
X117128735Y-106928690D01*
X117701190Y-106356235D01*
X118011000Y-105608287D01*
X118011000Y-104798713D01*
X117701190Y-104050765D01*
X117128735Y-103478310D01*
X116380787Y-103168500D01*
X115571213Y-103168500D01*
X114823265Y-103478310D01*
X114250810Y-104050765D01*
X113941000Y-104798713D01*
X113740000Y-104798713D01*
X113740000Y-102834940D01*
X117499165Y-102834940D01*
X117708353Y-103195789D01*
X118645650Y-103573324D01*
X119656077Y-103563433D01*
X120543647Y-103195789D01*
X120752835Y-102834940D01*
X119126000Y-101208105D01*
X117499165Y-102834940D01*
X113740000Y-102834940D01*
X113740000Y-100548150D01*
X116581176Y-100548150D01*
X116591067Y-101558577D01*
X116958711Y-102446147D01*
X117319560Y-102655335D01*
X118946395Y-101028500D01*
X119305605Y-101028500D01*
X120932440Y-102655335D01*
X121293289Y-102446147D01*
X121377418Y-102237283D01*
X121472692Y-102467295D01*
X122187205Y-103181808D01*
X123120762Y-103568500D01*
X124131238Y-103568500D01*
X125064795Y-103181808D01*
X125779308Y-102467295D01*
X126166000Y-101533738D01*
X126166000Y-100523262D01*
X125779308Y-99589705D01*
X125064795Y-98875192D01*
X124131238Y-98488500D01*
X123120762Y-98488500D01*
X122187205Y-98875192D01*
X121472692Y-99589705D01*
X121378611Y-99816837D01*
X121293289Y-99610853D01*
X120932440Y-99401665D01*
X119305605Y-101028500D01*
X118946395Y-101028500D01*
X117319560Y-99401665D01*
X116958711Y-99610853D01*
X116581176Y-100548150D01*
X113740000Y-100548150D01*
X113740000Y-99222060D01*
X117499165Y-99222060D01*
X119126000Y-100848895D01*
X120752835Y-99222060D01*
X120543647Y-98861211D01*
X119606350Y-98483676D01*
X118595923Y-98493567D01*
X117708353Y-98861211D01*
X117499165Y-99222060D01*
X113740000Y-99222060D01*
X113740000Y-96448713D01*
X113941000Y-96448713D01*
X113941000Y-97258287D01*
X114250810Y-98006235D01*
X114823265Y-98578690D01*
X115571213Y-98888500D01*
X116380787Y-98888500D01*
X117128735Y-98578690D01*
X117701190Y-98006235D01*
X118011000Y-97258287D01*
X118011000Y-96448713D01*
X117701190Y-95700765D01*
X117128735Y-95128310D01*
X116380787Y-94818500D01*
X115571213Y-94818500D01*
X114823265Y-95128310D01*
X114250810Y-95700765D01*
X113941000Y-96448713D01*
X113740000Y-96448713D01*
X113740000Y-93704506D01*
X153882000Y-93704506D01*
X153882000Y-94255494D01*
X154092853Y-94764540D01*
X154482460Y-95154147D01*
X154991506Y-95365000D01*
X155542494Y-95365000D01*
X156051540Y-95154147D01*
X156441147Y-94764540D01*
X156652000Y-94255494D01*
X156652000Y-93704506D01*
X158762000Y-93704506D01*
X158762000Y-94255494D01*
X158972853Y-94764540D01*
X159362460Y-95154147D01*
X159871506Y-95365000D01*
X160422494Y-95365000D01*
X160931540Y-95154147D01*
X161321147Y-94764540D01*
X161532000Y-94255494D01*
X161532000Y-93704506D01*
X161321147Y-93195460D01*
X160931540Y-92805853D01*
X160422494Y-92595000D01*
X159871506Y-92595000D01*
X159362460Y-92805853D01*
X158972853Y-93195460D01*
X158762000Y-93704506D01*
X156652000Y-93704506D01*
X156441147Y-93195460D01*
X156051540Y-92805853D01*
X155542494Y-92595000D01*
X154991506Y-92595000D01*
X154482460Y-92805853D01*
X154092853Y-93195460D01*
X153882000Y-93704506D01*
X113740000Y-93704506D01*
X113740000Y-90201618D01*
X113782498Y-89725431D01*
X115875000Y-89725431D01*
X115875000Y-90614569D01*
X116215259Y-91436026D01*
X116843974Y-92064741D01*
X117665431Y-92405000D01*
X118554569Y-92405000D01*
X119376026Y-92064741D01*
X120004741Y-91436026D01*
X120345000Y-90614569D01*
X120345000Y-89725431D01*
X171755000Y-89725431D01*
X171755000Y-90614569D01*
X172095259Y-91436026D01*
X172723974Y-92064741D01*
X173545431Y-92405000D01*
X174434569Y-92405000D01*
X175256026Y-92064741D01*
X175884741Y-91436026D01*
X176225000Y-90614569D01*
X176225000Y-89725431D01*
X175884741Y-88903974D01*
X175256026Y-88275259D01*
X174434569Y-87935000D01*
X173545431Y-87935000D01*
X172723974Y-88275259D01*
X172095259Y-88903974D01*
X171755000Y-89725431D01*
X120345000Y-89725431D01*
X120004741Y-88903974D01*
X119376026Y-88275259D01*
X118554569Y-87935000D01*
X117665431Y-87935000D01*
X116843974Y-88275259D01*
X116215259Y-88903974D01*
X115875000Y-89725431D01*
X113782498Y-89725431D01*
X113811842Y-89396642D01*
X114016723Y-88647723D01*
X114350986Y-87946928D01*
X114804069Y-87316395D01*
X115361645Y-86776066D01*
X116006099Y-86343011D01*
X116717044Y-86030927D01*
X117477493Y-85848360D01*
X118136031Y-85800000D01*
X173958382Y-85800000D01*
X174763358Y-85871842D01*
X174763358Y-85871842D01*
G37*
X174763358Y-85871842D02*
X175512277Y-86076723D01*
X176213072Y-86410986D01*
X176843605Y-86864069D01*
X177383934Y-87421645D01*
X177816989Y-88066099D01*
X178129073Y-88777044D01*
X178311640Y-89537493D01*
X178360000Y-90196031D01*
X178360001Y-118078371D01*
X178288158Y-118883359D01*
X178083277Y-119632277D01*
X177749013Y-120333075D01*
X177295931Y-120963605D01*
X176738354Y-121503935D01*
X176093901Y-121936989D01*
X175382956Y-122249073D01*
X174622506Y-122431640D01*
X173963968Y-122480000D01*
X118141618Y-122480000D01*
X117336641Y-122408158D01*
X116587723Y-122203277D01*
X115886925Y-121869013D01*
X115256395Y-121415931D01*
X114716065Y-120858354D01*
X114283011Y-120213901D01*
X113970927Y-119502956D01*
X113788360Y-118742506D01*
X113740000Y-118083968D01*
X113740000Y-117665431D01*
X115875000Y-117665431D01*
X115875000Y-118554569D01*
X116215259Y-119376026D01*
X116843974Y-120004741D01*
X117665431Y-120345000D01*
X118554569Y-120345000D01*
X119376026Y-120004741D01*
X120004741Y-119376026D01*
X120345000Y-118554569D01*
X120345000Y-118372000D01*
X139695560Y-118372000D01*
X139695560Y-119372000D01*
X139744843Y-119619765D01*
X139885191Y-119829809D01*
X140095235Y-119970157D01*
X140343000Y-120019440D01*
X141343000Y-120019440D01*
X141590765Y-119970157D01*
X141678817Y-119911322D01*
X141811126Y-119966119D01*
X141986000Y-119839954D01*
X141986000Y-119394322D01*
X141990440Y-119372000D01*
X141990440Y-118872000D01*
X142225765Y-118872000D01*
X142251027Y-118999000D01*
X142240000Y-118999000D01*
X142240000Y-119839954D01*
X142414874Y-119966119D01*
X142673209Y-119859127D01*
X142736090Y-119804801D01*
X142940145Y-119941146D01*
X143271217Y-120007000D01*
X143494783Y-120007000D01*
X143825855Y-119941146D01*
X144029910Y-119804801D01*
X144092791Y-119859127D01*
X144351126Y-119966119D01*
X144526000Y-119839954D01*
X144526000Y-118999000D01*
X144514973Y-118999000D01*
X144540235Y-118872000D01*
X144765765Y-118872000D01*
X144791027Y-118999000D01*
X144780000Y-118999000D01*
X144780000Y-119839954D01*
X144954874Y-119966119D01*
X145213209Y-119859127D01*
X145276090Y-119804801D01*
X145480145Y-119941146D01*
X145811217Y-120007000D01*
X146034783Y-120007000D01*
X146365855Y-119941146D01*
X146558000Y-119812759D01*
X146750145Y-119941146D01*
X147081217Y-120007000D01*
X147304783Y-120007000D01*
X147635855Y-119941146D01*
X147828000Y-119812759D01*
X148020145Y-119941146D01*
X148351217Y-120007000D01*
X148574783Y-120007000D01*
X148905855Y-119941146D01*
X149098000Y-119812759D01*
X149290145Y-119941146D01*
X149621217Y-120007000D01*
X149844783Y-120007000D01*
X150175855Y-119941146D01*
X150368000Y-119812759D01*
X150560145Y-119941146D01*
X150891217Y-120007000D01*
X151114783Y-120007000D01*
X151445855Y-119941146D01*
X151649910Y-119804801D01*
X151712791Y-119859127D01*
X151971126Y-119966119D01*
X152146000Y-119839954D01*
X152146000Y-118999000D01*
X152134973Y-118999000D01*
X152160235Y-118872000D01*
X152385765Y-118872000D01*
X152411027Y-118999000D01*
X152400000Y-118999000D01*
X152400000Y-119839954D01*
X152574874Y-119966119D01*
X152833209Y-119859127D01*
X152896090Y-119804801D01*
X153100145Y-119941146D01*
X153431217Y-120007000D01*
X153654783Y-120007000D01*
X153985855Y-119941146D01*
X154189910Y-119804801D01*
X154252791Y-119859127D01*
X154511126Y-119966119D01*
X154686000Y-119839954D01*
X154686000Y-118999000D01*
X154674973Y-118999000D01*
X154700235Y-118872000D01*
X154925765Y-118872000D01*
X154951027Y-118999000D01*
X154940000Y-118999000D01*
X154940000Y-119839954D01*
X155114874Y-119966119D01*
X155373209Y-119859127D01*
X155436090Y-119804801D01*
X155640145Y-119941146D01*
X155971217Y-120007000D01*
X156194783Y-120007000D01*
X156525855Y-119941146D01*
X156729910Y-119804801D01*
X156792791Y-119859127D01*
X157051126Y-119966119D01*
X157226000Y-119839954D01*
X157226000Y-118999000D01*
X157214973Y-118999000D01*
X157240235Y-118872000D01*
X157465765Y-118872000D01*
X157491027Y-118999000D01*
X157480000Y-118999000D01*
X157480000Y-119839954D01*
X157654874Y-119966119D01*
X157913209Y-119859127D01*
X157976090Y-119804801D01*
X158180145Y-119941146D01*
X158511217Y-120007000D01*
X158734783Y-120007000D01*
X159065855Y-119941146D01*
X159269910Y-119804801D01*
X159332791Y-119859127D01*
X159591126Y-119966119D01*
X159766000Y-119839954D01*
X159766000Y-118999000D01*
X159754973Y-118999000D01*
X159780235Y-118872000D01*
X160005765Y-118872000D01*
X160031027Y-118999000D01*
X160020000Y-118999000D01*
X160020000Y-119839954D01*
X160194874Y-119966119D01*
X160453209Y-119859127D01*
X160516090Y-119804801D01*
X160720145Y-119941146D01*
X161051217Y-120007000D01*
X161274783Y-120007000D01*
X161605855Y-119941146D01*
X161981289Y-119690289D01*
X162232146Y-119314855D01*
X162320235Y-118872000D01*
X162232146Y-118429145D01*
X161981289Y-118053711D01*
X161605855Y-117802854D01*
X161274783Y-117737000D01*
X161051217Y-117737000D01*
X160720145Y-117802854D01*
X160516090Y-117939199D01*
X160453209Y-117884873D01*
X160194874Y-117777881D01*
X160020000Y-117904046D01*
X160020000Y-118745000D01*
X160031027Y-118745000D01*
X160005765Y-118872000D01*
X159780235Y-118872000D01*
X159754973Y-118745000D01*
X159766000Y-118745000D01*
X159766000Y-117904046D01*
X159591126Y-117777881D01*
X159332791Y-117884873D01*
X159269910Y-117939199D01*
X159065855Y-117802854D01*
X158734783Y-117737000D01*
X158511217Y-117737000D01*
X158180145Y-117802854D01*
X157976090Y-117939199D01*
X157913209Y-117884873D01*
X157654874Y-117777881D01*
X157480000Y-117904046D01*
X157480000Y-118745000D01*
X157491027Y-118745000D01*
X157465765Y-118872000D01*
X157240235Y-118872000D01*
X157214973Y-118745000D01*
X157226000Y-118745000D01*
X157226000Y-117904046D01*
X157051126Y-117777881D01*
X156792791Y-117884873D01*
X156729910Y-117939199D01*
X156525855Y-117802854D01*
X156194783Y-117737000D01*
X155971217Y-117737000D01*
X155640145Y-117802854D01*
X155436090Y-117939199D01*
X155373209Y-117884873D01*
X155114874Y-117777881D01*
X154940000Y-117904046D01*
X154940000Y-118745000D01*
X154951027Y-118745000D01*
X154925765Y-118872000D01*
X154700235Y-118872000D01*
X154674973Y-118745000D01*
X154686000Y-118745000D01*
X154686000Y-117904046D01*
X154511126Y-117777881D01*
X154252791Y-117884873D01*
X154189910Y-117939199D01*
X153985855Y-117802854D01*
X153654783Y-117737000D01*
X153431217Y-117737000D01*
X153100145Y-117802854D01*
X152896090Y-117939199D01*
X152833209Y-117884873D01*
X152574874Y-117777881D01*
X152400000Y-117904046D01*
X152400000Y-118745000D01*
X152411027Y-118745000D01*
X152385765Y-118872000D01*
X152160235Y-118872000D01*
X152134973Y-118745000D01*
X152146000Y-118745000D01*
X152146000Y-117904046D01*
X151971126Y-117777881D01*
X151712791Y-117884873D01*
X151649910Y-117939199D01*
X151445855Y-117802854D01*
X151114783Y-117737000D01*
X150891217Y-117737000D01*
X150560145Y-117802854D01*
X150368000Y-117931241D01*
X150175855Y-117802854D01*
X149844783Y-117737000D01*
X149621217Y-117737000D01*
X149290145Y-117802854D01*
X149098000Y-117931241D01*
X148905855Y-117802854D01*
X148574783Y-117737000D01*
X148351217Y-117737000D01*
X148020145Y-117802854D01*
X147828000Y-117931241D01*
X147635855Y-117802854D01*
X147304783Y-117737000D01*
X147081217Y-117737000D01*
X146750145Y-117802854D01*
X146558000Y-117931241D01*
X146365855Y-117802854D01*
X146034783Y-117737000D01*
X145811217Y-117737000D01*
X145480145Y-117802854D01*
X145276090Y-117939199D01*
X145213209Y-117884873D01*
X144954874Y-117777881D01*
X144780000Y-117904046D01*
X144780000Y-118745000D01*
X144791027Y-118745000D01*
X144765765Y-118872000D01*
X144540235Y-118872000D01*
X144514973Y-118745000D01*
X144526000Y-118745000D01*
X144526000Y-117904046D01*
X144351126Y-117777881D01*
X144092791Y-117884873D01*
X144029910Y-117939199D01*
X143825855Y-117802854D01*
X143494783Y-117737000D01*
X143271217Y-117737000D01*
X142940145Y-117802854D01*
X142736090Y-117939199D01*
X142673209Y-117884873D01*
X142414874Y-117777881D01*
X142240000Y-117904046D01*
X142240000Y-118745000D01*
X142251027Y-118745000D01*
X142225765Y-118872000D01*
X141990440Y-118872000D01*
X141990440Y-118372000D01*
X141986000Y-118349678D01*
X141986000Y-117904046D01*
X141811126Y-117777881D01*
X141678817Y-117832678D01*
X141590765Y-117773843D01*
X141343000Y-117724560D01*
X140343000Y-117724560D01*
X140095235Y-117773843D01*
X139885191Y-117914191D01*
X139744843Y-118124235D01*
X139695560Y-118372000D01*
X120345000Y-118372000D01*
X120345000Y-117665431D01*
X171755000Y-117665431D01*
X171755000Y-118554569D01*
X172095259Y-119376026D01*
X172723974Y-120004741D01*
X173545431Y-120345000D01*
X174434569Y-120345000D01*
X175256026Y-120004741D01*
X175884741Y-119376026D01*
X176225000Y-118554569D01*
X176225000Y-117665431D01*
X175884741Y-116843974D01*
X175256026Y-116215259D01*
X174434569Y-115875000D01*
X173545431Y-115875000D01*
X172723974Y-116215259D01*
X172095259Y-116843974D01*
X171755000Y-117665431D01*
X120345000Y-117665431D01*
X120004741Y-116843974D01*
X119376026Y-116215259D01*
X118554569Y-115875000D01*
X117665431Y-115875000D01*
X116843974Y-116215259D01*
X116215259Y-116843974D01*
X115875000Y-117665431D01*
X113740000Y-117665431D01*
X113740000Y-111887000D01*
X133972560Y-111887000D01*
X133972560Y-113538000D01*
X134021843Y-113785765D01*
X134162191Y-113995809D01*
X134372235Y-114136157D01*
X134620000Y-114185440D01*
X136271000Y-114185440D01*
X136518765Y-114136157D01*
X136728809Y-113995809D01*
X136869157Y-113785765D01*
X136918440Y-113538000D01*
X136918440Y-111887000D01*
X136869157Y-111639235D01*
X136728809Y-111429191D01*
X136518765Y-111288843D01*
X136278933Y-111241138D01*
X136292110Y-111198715D01*
X135445500Y-110352105D01*
X134598890Y-111198715D01*
X134612067Y-111241138D01*
X134372235Y-111288843D01*
X134162191Y-111429191D01*
X134021843Y-111639235D01*
X133972560Y-111887000D01*
X113740000Y-111887000D01*
X113740000Y-109949631D01*
X133973160Y-109949631D01*
X133999947Y-110530035D01*
X134170524Y-110941844D01*
X134419285Y-111019110D01*
X135265895Y-110172500D01*
X135625105Y-110172500D01*
X136471715Y-111019110D01*
X136720476Y-110941844D01*
X136917840Y-110395369D01*
X136891053Y-109814965D01*
X136720476Y-109403156D01*
X136471715Y-109325890D01*
X135625105Y-110172500D01*
X135265895Y-110172500D01*
X134419285Y-109325890D01*
X134170524Y-109403156D01*
X133973160Y-109949631D01*
X113740000Y-109949631D01*
X113740000Y-109146285D01*
X134598890Y-109146285D01*
X135445500Y-109992895D01*
X136292110Y-109146285D01*
X136214844Y-108897524D01*
X135668369Y-108700160D01*
X135087965Y-108726947D01*
X134676156Y-108897524D01*
X134598890Y-109146285D01*
X113740000Y-109146285D01*
X113740000Y-104798713D01*
X113941000Y-104798713D01*
X113941000Y-105608287D01*
X114250810Y-106356235D01*
X114823265Y-106928690D01*
X115571213Y-107238500D01*
X116380787Y-107238500D01*
X117128735Y-106928690D01*
X117701190Y-106356235D01*
X118011000Y-105608287D01*
X118011000Y-104798713D01*
X117701190Y-104050765D01*
X117128735Y-103478310D01*
X116380787Y-103168500D01*
X115571213Y-103168500D01*
X114823265Y-103478310D01*
X114250810Y-104050765D01*
X113941000Y-104798713D01*
X113740000Y-104798713D01*
X113740000Y-102834940D01*
X117499165Y-102834940D01*
X117708353Y-103195789D01*
X118645650Y-103573324D01*
X119656077Y-103563433D01*
X120543647Y-103195789D01*
X120752835Y-102834940D01*
X119126000Y-101208105D01*
X117499165Y-102834940D01*
X113740000Y-102834940D01*
X113740000Y-100548150D01*
X116581176Y-100548150D01*
X116591067Y-101558577D01*
X116958711Y-102446147D01*
X117319560Y-102655335D01*
X118946395Y-101028500D01*
X119305605Y-101028500D01*
X120932440Y-102655335D01*
X121293289Y-102446147D01*
X121377418Y-102237283D01*
X121472692Y-102467295D01*
X122187205Y-103181808D01*
X123120762Y-103568500D01*
X124131238Y-103568500D01*
X125064795Y-103181808D01*
X125779308Y-102467295D01*
X126166000Y-101533738D01*
X126166000Y-100523262D01*
X125779308Y-99589705D01*
X125064795Y-98875192D01*
X124131238Y-98488500D01*
X123120762Y-98488500D01*
X122187205Y-98875192D01*
X121472692Y-99589705D01*
X121378611Y-99816837D01*
X121293289Y-99610853D01*
X120932440Y-99401665D01*
X119305605Y-101028500D01*
X118946395Y-101028500D01*
X117319560Y-99401665D01*
X116958711Y-99610853D01*
X116581176Y-100548150D01*
X113740000Y-100548150D01*
X113740000Y-99222060D01*
X117499165Y-99222060D01*
X119126000Y-100848895D01*
X120752835Y-99222060D01*
X120543647Y-98861211D01*
X119606350Y-98483676D01*
X118595923Y-98493567D01*
X117708353Y-98861211D01*
X117499165Y-99222060D01*
X113740000Y-99222060D01*
X113740000Y-96448713D01*
X113941000Y-96448713D01*
X113941000Y-97258287D01*
X114250810Y-98006235D01*
X114823265Y-98578690D01*
X115571213Y-98888500D01*
X116380787Y-98888500D01*
X117128735Y-98578690D01*
X117701190Y-98006235D01*
X118011000Y-97258287D01*
X118011000Y-96448713D01*
X117701190Y-95700765D01*
X117128735Y-95128310D01*
X116380787Y-94818500D01*
X115571213Y-94818500D01*
X114823265Y-95128310D01*
X114250810Y-95700765D01*
X113941000Y-96448713D01*
X113740000Y-96448713D01*
X113740000Y-93704506D01*
X153882000Y-93704506D01*
X153882000Y-94255494D01*
X154092853Y-94764540D01*
X154482460Y-95154147D01*
X154991506Y-95365000D01*
X155542494Y-95365000D01*
X156051540Y-95154147D01*
X156441147Y-94764540D01*
X156652000Y-94255494D01*
X156652000Y-93704506D01*
X158762000Y-93704506D01*
X158762000Y-94255494D01*
X158972853Y-94764540D01*
X159362460Y-95154147D01*
X159871506Y-95365000D01*
X160422494Y-95365000D01*
X160931540Y-95154147D01*
X161321147Y-94764540D01*
X161532000Y-94255494D01*
X161532000Y-93704506D01*
X161321147Y-93195460D01*
X160931540Y-92805853D01*
X160422494Y-92595000D01*
X159871506Y-92595000D01*
X159362460Y-92805853D01*
X158972853Y-93195460D01*
X158762000Y-93704506D01*
X156652000Y-93704506D01*
X156441147Y-93195460D01*
X156051540Y-92805853D01*
X155542494Y-92595000D01*
X154991506Y-92595000D01*
X154482460Y-92805853D01*
X154092853Y-93195460D01*
X153882000Y-93704506D01*
X113740000Y-93704506D01*
X113740000Y-90201618D01*
X113782498Y-89725431D01*
X115875000Y-89725431D01*
X115875000Y-90614569D01*
X116215259Y-91436026D01*
X116843974Y-92064741D01*
X117665431Y-92405000D01*
X118554569Y-92405000D01*
X119376026Y-92064741D01*
X120004741Y-91436026D01*
X120345000Y-90614569D01*
X120345000Y-89725431D01*
X171755000Y-89725431D01*
X171755000Y-90614569D01*
X172095259Y-91436026D01*
X172723974Y-92064741D01*
X173545431Y-92405000D01*
X174434569Y-92405000D01*
X175256026Y-92064741D01*
X175884741Y-91436026D01*
X176225000Y-90614569D01*
X176225000Y-89725431D01*
X175884741Y-88903974D01*
X175256026Y-88275259D01*
X174434569Y-87935000D01*
X173545431Y-87935000D01*
X172723974Y-88275259D01*
X172095259Y-88903974D01*
X171755000Y-89725431D01*
X120345000Y-89725431D01*
X120004741Y-88903974D01*
X119376026Y-88275259D01*
X118554569Y-87935000D01*
X117665431Y-87935000D01*
X116843974Y-88275259D01*
X116215259Y-88903974D01*
X115875000Y-89725431D01*
X113782498Y-89725431D01*
X113811842Y-89396642D01*
X114016723Y-88647723D01*
X114350986Y-87946928D01*
X114804069Y-87316395D01*
X115361645Y-86776066D01*
X116006099Y-86343011D01*
X116717044Y-86030927D01*
X117477493Y-85848360D01*
X118136031Y-85800000D01*
X173958382Y-85800000D01*
X174763358Y-85871842D01*
M02*
