M48
;DRILL file {KiCad (5.0.0)} date 04/05/19 20:44:14
;FORMAT={-:-/ absolute / inch / decimal}
FMAT,2
INCH,TZ
T1C0.0157
T2C0.0256
T3C0.0276
T4C0.0315
T5C0.0906
T6C0.1102
T7C0.1260
%
G90
G05
M72
T1
X4.83Y-4.295
X4.85Y-3.65
X5.12Y-4.685
X5.135Y-4.0425
X5.17Y-3.915
X5.18Y-4.465
X5.2Y-4.2
X5.205Y-4.05
X5.29Y-3.705
X5.33Y-4.115
X5.335Y-3.915
X5.385Y-4.265
X5.42Y-4.39
X5.445Y-3.88
X5.455Y-3.79
X5.455Y-4.1125
X5.475Y-4.31
X5.525Y-4.495
X5.585Y-3.96
X5.615Y-4.45
X5.625Y-3.79
X5.69Y-3.88
X5.745Y-4.27
X5.78Y-3.79
X5.875Y-4.34
X5.89Y-4.075
X5.965Y-3.945
X5.98Y-3.72
X5.995Y-4.345
X5.995Y-4.495
X6.045Y-3.855
X6.0675Y-3.9975
X6.095Y-4.34
X6.115Y-4.435
X6.14Y-4.2075
X6.18Y-4.1375
X6.2Y-4.34
X6.255Y-4.14
X6.3Y-4.34
X6.305Y-4.42
X6.315Y-4.235
X6.37Y-4.025
X6.385Y-4.49
X6.43Y-4.575
X6.43Y-4.66
X6.475Y-4.435
X6.485Y-4.35
X6.5Y-3.8
X6.515Y-4.135
X6.5875Y-4.0025
X6.595Y-4.06
X6.6225Y-3.7
X6.65Y-4.66
X6.6694Y-4.185
X6.685Y-4.47
X6.72Y-4.015
X6.72Y-4.315
X6.74Y-4.56
X6.855Y-4.2
X6.885Y-4.425
X6.955Y-4.58
T2
X5.545Y-4.68
X5.595Y-4.68
X5.645Y-4.68
X5.695Y-4.68
X5.745Y-4.68
X5.795Y-4.68
X5.845Y-4.68
X5.895Y-4.68
X5.945Y-4.68
X5.995Y-4.68
X6.045Y-4.68
X6.095Y-4.68
X6.145Y-4.68
X6.195Y-4.68
X6.245Y-4.68
X6.295Y-4.68
X6.345Y-4.68
T3
X5.3325Y-4.3375
X5.3325Y-4.4375
T4
X6.1129Y-3.7
X6.305Y-3.7
T5
X4.69Y-3.9775
X4.8672Y-3.9775
T6
X4.566Y-3.8131
X4.566Y-4.1419
T7
X6.85Y-3.55
X4.65Y-4.65
X4.65Y-3.55
X6.85Y-4.65
T0
M30
